<svg xmlns="http://www.w3.org/2000/svg" xmlns:xlink="http://www.w3.org/1999/xlink" version="1.1" x="0px" y="0px" viewBox="0 0 100 125" style="enable-background:new 0 0 100 100;" xml:space="preserve"><path d="M49.988,89.999c0.004,0,0.008,0,0.012,0c0.301,0,0.587-0.136,0.776-0.37c0.066-0.082,6.687-8.27,13.216-18.716  c8.823-14.115,13.297-25.428,13.297-33.625c0-15.047-12.242-27.29-27.289-27.29s-27.289,12.242-27.289,27.29  c0,17.879,25.416,50.924,26.498,52.322C49.396,89.852,49.684,89.995,49.988,89.999z M50,11.999c13.944,0,25.289,11.345,25.289,25.29  c0,16.854-20.9,44.483-25.271,50.077c-4.329-5.777-25.307-34.575-25.307-50.077C24.711,23.343,36.056,11.999,50,11.999z"/><path d="M60.464,36.458c0-5.77-4.694-10.464-10.464-10.464s-10.464,4.694-10.464,10.464S44.23,46.922,50,46.922  S60.464,42.229,60.464,36.458z M50,44.922c-4.667,0-8.464-3.797-8.464-8.464s3.797-8.464,8.464-8.464s8.464,3.797,8.464,8.464  S54.667,44.922,50,44.922z"/></svg>